<?xml version="1.0" encoding="UTF-8"?> <svg xmlns="http://www.w3.org/2000/svg" width="32" height="32" viewBox="0 0 32 32" fill="none"><path d="M29.1647 13.6468C28.0933 13.4155 26.992 13.978 26.5795 15.0181C26.4545 15.3319 26.3107 15.4369 25.9769 15.4344C24.0743 15.4181 22.1717 15.4269 20.2678 15.4256C20.1178 15.4256 19.9665 15.4081 19.8328 15.3994C19.7202 14.8756 19.619 14.3968 19.5077 13.8755C19.8203 13.8755 20.1015 13.8493 20.3765 13.8805C20.9128 13.9418 21.2729 13.738 21.6041 13.308C22.6042 12.0129 23.6543 10.7553 24.6693 9.47148C24.8844 9.20021 25.0581 9.09146 25.4406 9.18021C26.7345 9.48023 28.0358 8.52767 28.1896 7.22758C28.3458 5.90373 27.3808 4.70615 26.0894 4.62489C24.6956 4.53614 23.5405 5.55996 23.6105 6.92755C23.638 7.48759 23.9068 8.03638 24.0968 8.69768C23.2755 9.71775 22.3079 10.8241 21.4566 12.0129C20.9366 12.7392 20.3615 13.0705 19.4777 12.9455C19.1802 12.903 18.9839 12.8542 18.8014 12.5804C17.8326 11.1341 16.4738 10.2515 14.7536 9.98652C14.2599 9.91151 14.1974 9.719 14.3386 9.27272H14.8437C16.03 9.27147 17.2151 9.26397 18.4002 9.27647C18.7514 9.28022 18.9764 9.15771 19.1515 8.84394C19.6877 7.87637 20.2603 6.9288 20.8003 5.96374C20.9453 5.70622 21.0866 5.60496 21.4104 5.61996C22.7192 5.67872 23.8218 4.55739 23.7805 3.26105C23.738 1.94846 22.5679 0.887133 21.2954 1.00964C19.9215 1.1409 18.9239 2.35849 19.2165 3.68608C19.3427 4.25862 19.7315 4.7749 20.0465 5.4062C19.5802 6.2125 19.0389 7.16007 18.4839 8.09764C18.4227 8.20014 18.2814 8.32265 18.1764 8.3239C16.9 8.3389 15.625 8.3339 14.2749 8.3339V7.75261C14.2749 6.41127 14.2686 5.06992 14.2786 3.72858C14.2811 3.2973 14.1036 3.09354 13.6648 3.10354C13.151 3.11479 12.6348 3.11979 12.121 3.10104C11.6897 3.08604 11.4959 3.28605 11.4497 3.69858C11.3797 4.31737 11.2822 4.93367 11.2134 5.55246C11.1872 5.79998 11.0846 5.91623 10.8421 6.00499C10.1858 6.24376 9.53704 6.51128 8.90449 6.80755C8.66447 6.92005 8.51946 6.89755 8.32445 6.74129C7.82692 6.34001 7.30688 5.96749 6.80435 5.57121C6.50682 5.33619 6.25431 5.34619 5.98429 5.61996C5.17423 6.44252 4.35917 7.26008 3.53537 8.06763C3.24035 8.3564 3.2541 8.61642 3.50036 8.92519C3.90039 9.42398 4.29542 9.92776 4.65669 10.4528C4.74545 10.5816 4.7567 10.8278 4.6992 10.9803C4.45543 11.6354 4.15416 12.2692 3.91414 12.9255C3.82539 13.1655 3.71538 13.2792 3.46661 13.3067C2.86282 13.373 2.26153 13.4705 1.65774 13.5318C1.2077 13.578 0.992689 13.7768 1.00019 14.2531C1.01894 15.3444 1.00269 16.4357 1.00769 17.5283C1.01019 18.0921 1.1052 18.1958 1.67774 18.2746C2.24903 18.3534 2.82032 18.4296 3.39286 18.4909C3.66538 18.5196 3.82289 18.6084 3.92414 18.9021C4.14666 19.5472 4.45293 20.1622 4.68795 20.8048C4.74795 20.9698 4.73795 21.2323 4.64294 21.3711C4.28542 21.8998 3.88914 22.4024 3.48911 22.9012C3.23285 23.2187 3.2641 23.475 3.55037 23.7562C4.36292 24.5525 5.16798 25.3576 5.96554 26.1714C6.24931 26.4614 6.51057 26.4714 6.8231 26.2239C7.32313 25.8264 7.84567 25.4563 8.3407 25.0526C8.54447 24.8851 8.69323 24.9063 8.91949 25.0101C9.54079 25.2963 10.1733 25.5589 10.8159 25.7914C11.0721 25.8839 11.1884 26.0064 11.2172 26.2727C11.2847 26.8914 11.3784 27.509 11.4534 28.1278C11.4997 28.5103 11.6759 28.7191 12.091 28.7053C12.5897 28.6878 13.0898 28.7053 13.5886 28.7003C14.1699 28.6966 14.2724 28.5991 14.2736 28.0165C14.2774 26.6752 14.2736 25.3338 14.2761 23.9925C14.2761 23.8287 14.2924 23.6637 14.3024 23.4675C15.6175 23.4675 16.8788 23.4637 18.1401 23.475C18.2426 23.4762 18.3889 23.55 18.4389 23.635C19.0152 24.6088 19.5765 25.5914 20.1428 26.5739C20.054 26.6539 19.9953 26.7052 19.939 26.7577C19.074 27.574 18.9077 28.7716 19.524 29.7329C20.1253 30.6705 21.3379 31.0442 22.3642 30.6092C23.378 30.1779 23.9393 29.0979 23.7143 28.009C23.4843 26.8977 22.5042 26.1314 21.3316 26.1864C21.0603 26.2001 20.9453 26.0989 20.8291 25.8926C20.2828 24.9301 19.714 23.9812 19.1815 23.0124C18.9814 22.6474 18.7239 22.5161 18.3176 22.5249C17.3351 22.5461 16.3525 22.5311 15.3699 22.5311H14.3224C14.2461 21.9111 14.2461 21.9073 14.6011 21.8548C16.4138 21.5836 17.8251 20.686 18.8614 19.1734C18.9614 19.0271 19.1852 18.9221 19.3702 18.8834C20.3103 18.6859 21.0278 19.0034 21.4854 19.8647C21.4991 19.8922 21.5241 19.9135 21.5441 19.9372C22.4317 21.041 23.3192 22.1449 24.2106 23.2549C24.1481 23.3462 24.1068 23.41 24.0631 23.4725C23.3755 24.4538 23.443 25.6539 24.2318 26.4689C25.0194 27.2827 26.2445 27.409 27.182 26.7739C28.0921 26.1589 28.4359 24.9701 27.9971 23.9587C27.5458 22.9137 26.4645 22.3799 25.2944 22.6612C25.0181 22.7287 24.9006 22.6211 24.7556 22.4386C23.6943 21.111 22.6154 19.7972 21.5691 18.4584C21.2729 18.0796 20.9566 17.8721 20.4653 17.9271C20.1515 17.9621 19.8315 17.9346 19.504 17.9346C19.624 17.3795 19.729 16.8983 19.8428 16.372H20.3065C22.1929 16.372 24.0806 16.3795 25.9682 16.3657C26.2932 16.3632 26.4507 16.4482 26.5757 16.772C26.9683 17.7946 28.0571 18.3771 29.1022 18.1771C30.1922 17.9696 30.9873 17.032 30.9998 15.9369C31.0148 14.8369 30.2472 13.8793 29.1647 13.6468ZM13.8161 20.9735C10.9696 20.9435 8.70448 18.6446 8.74073 15.8219C8.77573 13.0555 11.1271 10.7728 13.8811 10.8303C16.6888 10.8891 18.9189 13.1792 18.8752 15.9582C18.8327 18.7496 16.56 21.0023 13.8161 20.9735Z" fill="#9E7567"></path></svg> 