<?xml version="1.0" encoding="UTF-8"?> <svg xmlns="http://www.w3.org/2000/svg" width="32" height="32" viewBox="0 0 32 32" fill="none"><g clip-path="url(#clip0_4828_13685)"><path d="M18.1083 11.0157L19.104 11.4174C19.5533 11.233 20.0468 10.7412 20.4935 10.601C20.8225 10.498 21.2909 10.5551 21.567 10.7646C21.7973 10.9395 22.5263 11.6684 22.7012 11.8987C23.3124 12.7047 22.4726 13.5722 22.0804 14.263L22.0614 14.4137L22.4397 15.3366C23.0734 15.5928 24.5218 15.6171 24.6448 16.501C24.6941 16.8559 24.6898 17.9545 24.6439 18.3147C24.5305 19.196 23.244 19.3233 22.5479 19.4592C22.3488 19.5553 22.3609 19.7899 22.2804 19.97C22.2103 20.1275 22.038 20.3613 22.0493 20.518C22.4008 21.2556 23.3444 22.136 22.702 22.9836C22.5557 23.1767 21.7168 24.0242 21.5324 24.1471C20.7134 24.6952 19.8875 23.8831 19.2044 23.497C18.923 23.4026 18.4711 23.7731 18.1646 23.8251L18.0651 23.9203C17.8962 24.6285 17.8175 25.9418 16.8989 26.0596C16.5361 26.1063 15.5137 26.1063 15.1509 26.0596C14.2575 25.9453 14.1397 24.6675 14.0064 23.9636L13.8852 23.8251L12.9476 23.4649C12.197 23.8009 11.3356 24.7644 10.4819 24.1177C10.262 23.9515 9.47419 23.1654 9.31835 22.9481C9.0188 22.5291 9.13741 21.9915 9.35904 21.5664C9.50016 21.2954 9.88975 20.8539 9.96766 20.6201C10.0508 20.3725 9.86724 20.1899 9.76854 19.9691C9.70448 19.8245 9.68456 19.5544 9.54345 19.4808C8.83786 19.2661 7.86215 19.3163 7.47862 18.5649C7.43014 18.4697 7.41109 18.4298 7.40071 18.3181C7.36867 17.9658 7.34703 16.7503 7.41369 16.4464C7.60589 15.5712 9.01966 15.6248 9.64041 15.3037L9.99623 14.3617C9.99797 14.1808 9.3625 13.38 9.24909 13.0995C9.09152 12.7099 9.0846 12.2424 9.34605 11.8987C9.52094 11.6684 10.2499 10.9395 10.4802 10.7646C10.6083 10.6676 10.7728 10.5837 10.9321 10.5689C11.352 10.53 11.5416 10.5845 11.8966 10.7759C12.2515 10.9672 12.5537 11.2087 12.8879 11.4078L13.938 11.0148C14.1666 10.3716 14.2081 8.94223 15.0817 8.82103C15.4323 8.77255 16.6106 8.77255 16.9612 8.82103C17.8348 8.94223 17.8772 10.3707 18.1049 11.0148L18.1083 11.0157ZM15.5526 13.696C12.6645 14.0405 11.2343 17.5658 13.1069 19.8072C15.0514 22.1343 18.7732 21.3837 19.6225 18.4792C20.3792 15.8915 18.2192 13.3774 15.5518 13.696H15.5526Z" fill="#9E7567"></path><path d="M27.8651 18.4867C27.982 18.4685 28.0962 18.5421 28.2045 18.5776C29.2598 19.2789 30.4762 19.8148 31.5341 20.497C31.7038 20.6069 31.8657 20.7212 31.9999 20.8736V25.5425C31.8856 25.6697 31.7419 25.7632 31.5991 25.855C30.5143 26.5511 29.2702 27.106 28.188 27.8228C28.0226 27.9033 27.8053 27.9025 27.6426 27.8228C26.6816 27.2116 25.6626 26.6965 24.6852 26.1147C24.5172 26.0152 23.8913 25.6611 23.8315 25.5433L23.7978 25.3823C23.8991 23.9807 23.6722 22.4163 23.7978 21.0355C23.8099 20.9004 23.8497 20.7627 23.9701 20.6892C25.0756 20.1091 26.1223 19.4174 27.2123 18.8122C27.3647 18.7274 27.7222 18.5092 27.8642 18.4876L27.8651 18.4867Z" fill="#9E7567"></path><path d="M4.46803 18.8779C4.82991 18.7982 4.95805 18.9584 5.12773 19.2337C6.48783 21.437 7.65141 23.771 9.01583 25.9734C9.21409 26.3639 9.38984 26.615 8.96302 26.937L0.373015 26.969C0.291634 26.9578 0.0838533 26.7794 0.0492231 26.7102C-0.118733 26.3803 0.185146 26.086 0.332325 25.8237C1.55304 23.6455 2.80232 21.3513 4.11134 19.2337C4.20138 19.0882 4.29401 18.9168 4.46803 18.8779Z" fill="#9E7567"></path><path d="M15.8093 0.021133C16.572 -0.113922 16.7971 0.420237 17.0733 0.999414C17.1607 1.18295 17.4828 2.05734 17.5754 2.11708C17.694 2.13266 17.8273 2.195 17.9364 2.20971C18.4256 2.27551 19.0013 2.24954 19.4801 2.35083C20.0549 2.47203 20.3752 3.28063 20.0073 3.76457L18.5572 5.10214C18.5147 5.24238 18.6922 5.76269 18.7303 5.95229C18.7814 6.20768 18.9597 6.902 18.9407 7.10199C18.8862 7.6751 18.2542 8.08459 17.7053 7.88461L16.0465 6.94875C15.9339 6.9297 15.0102 7.54005 14.8154 7.64394C14.4535 7.83699 14.2249 7.97205 13.7886 7.91318C13.4691 7.86989 13.1012 7.35305 13.1029 7.03792L13.4908 5.10127L12.0701 3.7992C11.6796 3.3092 11.9376 2.54995 12.522 2.36901C12.7878 2.28676 13.2423 2.30754 13.528 2.27378C13.5964 2.26599 13.6561 2.2201 13.7254 2.21144C13.9669 2.18114 14.2267 2.2253 14.4725 2.11621C14.8093 1.62188 15.0656 0.408983 15.572 0.105109C15.6205 0.0765401 15.7547 0.0297904 15.811 0.0202673L15.8093 0.021133Z" fill="#9E7567"></path><path d="M11.7362 28.7271C11.7743 28.7651 11.8825 29.0586 11.8686 29.127C11.8643 29.1495 11.7457 29.4067 11.7344 29.4179C11.6981 29.4543 11.5535 29.4499 11.5518 29.559C12.0625 29.7036 12.5699 29.8819 13.0893 29.998C15.6641 30.5711 18.3081 30.2932 20.7547 29.3331C21.1157 29.1911 21.6032 28.7825 21.9555 29.1028C22.2109 29.3357 22.101 29.5443 21.9754 29.8075C21.2291 30.1555 20.4638 30.4819 19.6691 30.7096C17.148 31.4316 14.5732 31.4169 12.0539 30.7096C11.8842 30.662 11.7145 30.5979 11.5526 30.5312C11.6158 30.7581 11.6617 30.8369 11.518 31.0481C11.3085 31.3563 10.9717 31.3147 10.7449 31.0472C10.5847 30.8585 10.1588 30.107 10.0479 29.8646C9.93712 29.6222 9.98214 29.366 10.1925 29.2041C10.3501 29.0829 10.9501 28.7522 11.144 28.6656C11.1994 28.6413 11.3422 28.5868 11.3899 28.5859C11.4202 28.5859 11.7223 28.7141 11.7353 28.7271H11.7362Z" fill="#9E7567"></path><path d="M8.49779 6.49961C8.54021 6.54203 8.63285 6.82426 8.64064 6.90824C8.66401 7.15497 8.67007 7.70991 8.63804 7.94799C8.58263 8.35834 8.14456 8.47868 7.80518 8.29428L7.63377 7.85102C6.48578 8.82151 5.46765 10.0448 4.73695 11.3702C4.00626 12.6957 3.49027 14.2142 3.25998 15.7258C3.21756 16.0045 3.23747 16.5092 3.16475 16.7326C3.07471 17.0079 2.84701 17.0841 2.57863 17.0529C2.27821 17.0174 2.19683 16.7084 2.21934 16.4348C2.29207 15.55 2.49812 14.5267 2.75611 13.667C3.48681 11.2257 4.87461 9.06825 6.75849 7.36535C6.76801 7.34457 6.53166 7.26665 6.465 7.20605C6.11437 6.88573 6.36024 6.42083 6.79139 6.36109C7.05631 6.32473 7.8883 6.32387 8.15235 6.36109C8.1991 6.36802 8.48134 6.48403 8.49865 6.50134L8.49779 6.49961Z" fill="#9E7567"></path><path d="M29.2454 14.7832C29.4264 14.6482 29.6125 14.5261 29.8532 14.5971C29.8895 14.6075 30.1043 14.8118 30.1216 14.8464C30.2289 15.0568 30.1103 15.2698 30.0125 15.4533C29.8757 15.7104 29.4454 16.487 29.2428 16.6281C29.0602 16.7554 28.9701 16.7372 28.7719 16.6489C28.6082 16.5753 27.8117 16.1173 27.7208 16.0152C27.4559 15.7139 27.6628 15.2083 28.1122 15.2325C28.223 15.2386 28.442 15.3918 28.397 15.2092C28.2541 14.6309 28.1217 14.0335 27.9338 13.4682C27.4014 11.8674 26.4196 10.2312 25.2924 8.98106C24.5712 8.18112 23.7089 7.53269 22.8596 6.87732C22.683 6.48601 23.0657 6.0038 23.4769 6.19513C23.8042 6.34836 24.5037 6.93966 24.8067 7.19851C26.269 8.4469 27.5884 10.2312 28.371 11.9938C28.7658 12.8829 29.0679 13.8266 29.2446 14.7815L29.2454 14.7832Z" fill="#9E7567"></path></g><defs><clipPath id="clip0_4828_13685"><rect width="32" height="32" fill="white"></rect></clipPath></defs></svg> 