<!DOCTYPE svg PUBLIC "-//W3C//DTD SVG 1.1//EN" "http://www.w3.org/Graphics/SVG/1.1/DTD/svg11.dtd">
<!-- Uploaded to: SVG Repo, www.svgrepo.com, Transformed by: SVG Repo Mixer Tools -->
<svg height="64px" width="64px" version="1.1" id="Layer_1" xmlns="http://www.w3.org/2000/svg" xmlns:xlink="http://www.w3.org/1999/xlink" viewBox="0 0 511.99 511.99" xml:space="preserve" fill="#000000">
<g id="SVGRepo_bgCarrier" stroke-width="0"/>
<g id="SVGRepo_tracerCarrier" stroke-linecap="round" stroke-linejoin="round"/>
<g id="SVGRepo_iconCarrier"> <circle style="fill:#4EB79B;" cx="256.001" cy="84.908" r="58.447"/> <path style="fill:#40A084;" d="M255.994,143.367c-32.282,0-58.447-26.177-58.447-58.459s26.165-58.447,58.447-58.447 c-14.547,0-26.35,26.165-26.35,58.447S241.447,143.367,255.994,143.367z"/> <path style="fill:#808080;" d="M256,222.739c-5.099,0-9.23-4.133-9.23-9.23v-76.303c0-5.098,4.132-9.23,9.23-9.23 c5.099,0,9.23,4.133,9.23,9.23v76.303C265.23,218.607,261.099,222.739,256,222.739z"/> <circle style="fill:#F7A872;" cx="255.989" cy="312.594" r="105.239"/> <path style="fill:#E09461;" d="M255.996,417.839c-58.114,0-105.239-47.124-105.239-105.239c0-58.127,47.124-105.239,105.239-105.239 c-32.614,0-59.062,47.112-59.062,105.239C196.934,370.714,223.382,417.839,255.996,417.839z"/> <g> <path style="fill:#808080;" d="M105.258,401.263c-3.316,0-6.522-1.792-8.174-4.929c-2.378-4.511-0.647-10.092,3.863-12.468 l100.575-52.995c4.514-2.376,10.093-0.646,12.468,3.863c2.378,4.511,0.647,10.092-3.863,12.468l-100.575,52.995 C108.18,400.92,106.708,401.263,105.258,401.263z"/> <path style="fill:#808080;" d="M406.743,401.263c-1.45,0-2.922-0.342-4.294-1.066l-100.586-52.995 c-4.509-2.376-6.24-7.958-3.864-12.468c2.377-4.509,7.957-6.242,12.47-3.863l100.586,52.995c4.509,2.377,6.24,7.958,3.864,12.468 C413.263,399.471,410.059,401.263,406.743,401.263z"/> </g> <circle style="fill:#4EB79B;" cx="453.543" cy="427.075" r="58.447"/> <path style="fill:#40A084;" d="M453.542,485.529c-32.282,0-58.447-26.177-58.447-58.459s26.165-58.447,58.447-58.447 c-14.547,0-26.35,26.165-26.35,58.447S438.995,485.529,453.542,485.529z"/> <circle style="fill:#4EB79B;" cx="58.447" cy="427.075" r="58.447"/> <path style="fill:#40A084;" d="M58.447,485.529C26.165,485.529,0,459.352,0,427.07s26.165-58.447,58.447-58.447 c-14.547,0-26.35,26.165-26.35,58.447S43.9,485.529,58.447,485.529z"/> </g>
</svg>