<?xml version="1.0" encoding="UTF-8"?> <svg xmlns="http://www.w3.org/2000/svg" width="32" height="32" viewBox="0 0 32 32" fill="none"><g clip-path="url(#clip0_4828_13676)"><path d="M13.1628 0.00166935C13.3172 0.107673 13.5426 0.1661 13.7237 0.222023C14.3698 0.420675 15.5233 0.895604 16.1284 0.941511C16.6651 0.981575 18.1166 0.409824 18.7259 0.222023C18.907 0.1661 19.1324 0.106838 19.2868 0.00166935H20.1616C20.2634 0.108507 20.4462 0.111011 20.5814 0.176116C21.3117 0.525009 22.128 2.08585 22.6948 2.74858C23.5044 3.6951 25.0002 3.74434 26.0978 4.21844C27.8514 4.97632 27.1453 7.14396 27.2813 8.65806C27.313 9.01613 27.5017 9.3283 27.6928 9.62127C28.1235 10.2815 28.747 10.9384 29.1502 11.6003C29.4164 12.0377 29.5191 12.5894 29.3964 13.0793C29.353 13.2546 29.2411 13.4866 29.1485 13.6436C28.6836 14.4332 27.3573 15.7428 27.2813 16.5875C27.187 17.6425 27.5626 19.538 26.9374 20.3677C26.2856 21.2324 24.6446 21.4436 23.6421 21.8208C23.2524 21.9678 22.9577 22.1764 22.694 22.4969C22.1639 23.1421 21.3927 24.5861 20.7458 24.9851C20.3035 25.2572 19.7643 25.3473 19.2668 25.2313C18.2852 25.0026 17.2627 24.4609 16.2528 24.304C15.2136 24.4442 14.187 24.9976 13.1829 25.2313C12.6887 25.3465 12.1395 25.258 11.7038 24.9843C11.6529 24.9525 11.3925 24.7581 11.3641 24.7297C10.8141 24.1813 10.2782 23.133 9.7557 22.4961C9.50362 22.1889 9.22317 21.9844 8.85341 21.8367C7.60725 21.3392 5.35447 21.1965 5.1675 19.5247C5.06483 18.6065 5.25597 17.5131 5.16833 16.5875C5.13829 16.2661 4.93463 15.8897 4.75684 15.6242C4.28609 14.9214 3.25944 13.8481 3.05494 13.0777C2.9239 12.5835 3.03575 12.0377 3.30034 11.5994C3.7761 10.8098 5.09071 9.52695 5.16917 8.65723C5.26599 7.57632 4.88955 5.75173 5.51138 4.87616C6.13322 4.00059 8.02375 3.76771 8.99531 3.36123C9.30998 3.22935 9.53618 3.00566 9.7557 2.74691C10.3166 2.08501 11.1446 0.520836 11.8691 0.174447C12.0035 0.110177 12.1863 0.106838 12.2889 0H13.1637L13.1628 0.00166935ZM15.6435 2.8888C7.81425 3.43969 3.61751 12.5142 8.59967 18.715C13.97 25.3974 24.7656 22.3776 25.9066 13.9015C26.7129 7.91437 21.6823 2.46395 15.6435 2.8888Z" fill="#9E7567"></path><path d="M15.5371 25.4925L11.7903 31.9604C11.625 32.0314 11.4347 31.9955 11.2886 31.897L9.38475 27.7412L9.1669 27.3964C9.05422 27.3388 8.66526 27.358 8.51085 27.3681C7.20208 27.4507 5.89164 27.656 4.57453 27.7428C4.49858 27.7478 4.42429 27.8079 4.32329 27.8088C4.09376 27.8113 3.89761 27.6193 3.85254 27.3981L6.82731 22.2482C6.92497 22.219 7.3398 22.3567 7.48003 22.3984C8.06597 22.5704 8.67361 22.7064 9.06841 23.1838C10.0625 24.3841 10.6509 26.0818 12.4463 26.2412C13.4972 26.3347 14.5272 25.6979 15.538 25.4925H15.5371Z" fill="#9E7567"></path><path d="M16.9111 25.4923C17.0046 25.4706 17.0681 25.5173 17.1457 25.539C18.4469 25.8946 19.4485 26.5932 20.8483 26.024C22.1195 25.5081 22.7639 23.7486 23.7229 22.838L25.6218 22.2471L28.5965 27.397C28.5515 27.6182 28.3553 27.8102 28.1258 27.8077C28.0248 27.8068 27.9513 27.7467 27.8746 27.7417C26.5574 27.6549 25.247 27.4496 23.9382 27.367C23.783 27.3569 23.3949 27.3377 23.2822 27.3953L23.0643 27.7401L21.1605 31.8959C20.9952 32.0027 20.7414 32.062 20.5962 31.8976L16.912 25.4914L16.9111 25.4923Z" fill="#9E7567"></path><path d="M15.2679 3.88864L17.1276 3.87695C23.4227 4.54386 27.1245 11.6427 23.7733 17.1424C20.3085 22.8274 12.1371 22.8265 8.67319 17.1424C5.33534 11.6644 8.9912 4.57975 15.2679 3.88864ZM18.9096 10.1854C19.0615 9.47928 19.4213 8.77565 19.3453 8.03112C19.2168 6.76325 17.9189 5.42777 16.6618 6.34425C15.9591 6.85673 16.2103 8.08287 16.1527 8.83407C15.9574 9.12538 15.6552 9.36242 15.4449 9.62534C15.0977 10.0594 14.8364 10.672 14.5268 11.1436C14.47 11.2304 14.3298 11.4625 14.2546 11.4967C14.1461 11.5459 14.1729 11.4524 14.1595 11.4057C14.1036 11.2029 14.0368 11.1019 13.8173 11.0593C12.8299 11.1278 11.7256 10.9683 10.7532 11.0568C10.5487 11.0752 10.421 11.152 10.3601 11.3514L10.3793 17.5589C10.4944 17.7092 10.638 17.7651 10.8191 17.806C11.7223 17.7417 12.7447 17.8953 13.632 17.8093C13.9734 17.7768 14.1219 17.6374 14.1895 17.3043L14.2597 17.2501C14.5251 17.2543 14.8047 17.1841 15.0334 17.3402C15.4015 17.5915 15.5108 17.8677 16.0676 17.9303C17.4172 17.841 18.9246 18.0539 20.2551 17.9345C20.9003 17.8769 21.2642 17.4337 21.3969 16.8269C21.5647 16.059 21.6115 15.1267 21.7225 14.3404C21.8335 13.5541 22.0313 12.6811 22.0947 11.9015C22.1448 11.2897 22.0605 10.7797 21.5322 10.4049C21.4754 10.3649 21.0956 10.1846 21.0656 10.1846H18.9105L18.9096 10.1854Z" fill="#9E7567"></path><path d="M17.4525 7.00807C17.5861 6.97802 17.6762 7.02226 17.7847 7.09488C18.9925 7.99883 17.9884 9.52211 17.723 10.6548C17.814 10.9235 17.8841 11.0971 18.1904 11.1255C18.9892 11.1981 19.9824 11.0178 20.7545 11.123C21.0717 11.1664 21.1894 11.4227 21.1593 11.7156C21.1401 11.9009 21.0625 12.1538 21.0366 12.3425C20.8555 13.6579 20.6811 14.9683 20.4741 16.2788C20.4448 16.4649 20.4657 16.6836 20.3831 16.8747L20.1168 16.9832C18.9132 16.9098 17.4985 17.1251 16.3199 16.9941C15.8575 16.9432 15.7456 16.5734 15.3517 16.4006C14.9994 16.2462 14.6372 16.3305 14.2624 16.303L14.1689 16.2095V12.597C14.1982 12.4969 14.6606 12.3992 14.8108 12.3016C15.2674 12.0053 15.7857 10.8092 16.1329 10.3125C16.5403 9.73077 17.0803 9.52544 17.1612 8.71665C17.2088 8.24005 17.1229 7.7092 17.1704 7.22592C17.1938 7.14579 17.3724 7.02643 17.4542 7.00807H17.4525Z" fill="#9E7567"></path><path d="M13.2245 11.998H11.2881V16.8091H13.2245V11.998Z" fill="#9E7567"></path></g><defs><clipPath id="clip0_4828_13676"><rect width="32" height="32" fill="white"></rect></clipPath></defs></svg> 