<?xml version="1.0" encoding="UTF-8"?> <svg xmlns="http://www.w3.org/2000/svg" width="32" height="32" viewBox="0 0 32 32" fill="none"><path d="M30.0625 18.9998C29.8138 18.9998 29.5754 19.0986 29.3996 19.2744C29.2238 19.4502 29.125 19.6887 29.125 19.9373V21.8124H23.8878L21.7421 19.6631L27.6414 13.7627C27.9927 13.4111 28.1901 12.9344 28.1901 12.4373C28.1901 11.9402 27.9927 11.4635 27.6414 11.1119L23.2257 6.69505L21.0753 4.54933C20.9012 4.37517 20.6945 4.23702 20.467 4.14277C20.2394 4.04851 19.9956 4 19.7493 4C19.5031 4 19.2592 4.04851 19.0317 4.14277C18.8042 4.23702 18.5974 4.37517 18.4233 4.54933L1.34194 21.6881C1.17843 21.8522 1.06719 22.061 1.02226 22.2882C0.977334 22.5154 1.00073 22.7508 1.08951 22.9647C1.17828 23.1786 1.32845 23.3614 1.52105 23.49C1.71365 23.6187 1.94004 23.6873 2.17164 23.6874H6.78535L10.9244 27.8253C11.276 28.1767 11.7528 28.3741 12.2498 28.3741C12.7469 28.3741 13.2236 28.1767 13.5752 27.8253L20.4132 20.992L22.5624 23.1378C22.7359 23.3126 22.9424 23.4513 23.17 23.5456C23.3975 23.64 23.6415 23.6882 23.8878 23.6874H29.125V25.5624C29.125 25.811 29.2238 26.0495 29.3996 26.2253C29.5754 26.4011 29.8138 26.4999 30.0625 26.4999C30.3111 26.4999 30.5496 26.4011 30.7254 26.2253C30.9012 26.0495 31 25.811 31 25.5624V19.9373C31 19.6887 30.9012 19.4502 30.7254 19.2744C30.5496 19.0986 30.3111 18.9998 30.0625 18.9998ZM19.7499 5.87473L21.237 7.36185L6.78535 21.8124H3.86618L19.7499 5.87473Z" fill="#9E7567"></path></svg> 