<!DOCTYPE svg PUBLIC "-//W3C//DTD SVG 1.1//EN" "http://www.w3.org/Graphics/SVG/1.1/DTD/svg11.dtd">
<!-- Uploaded to: SVG Repo, www.svgrepo.com, Transformed by: SVG Repo Mixer Tools -->
<svg height="64px" width="64px" version="1.1" id="Layer_1" xmlns="http://www.w3.org/2000/svg" xmlns:xlink="http://www.w3.org/1999/xlink" viewBox="0 0 512.005 512.005" xml:space="preserve" fill="#000000">
<g id="SVGRepo_bgCarrier" stroke-width="0"/>
<g id="SVGRepo_tracerCarrier" stroke-linecap="round" stroke-linejoin="round"/>
<g id="SVGRepo_iconCarrier"> <path style="fill:#919CB0;" d="M173.646,393.517c-16.026,0-30.49-10.129-35.968-25.19l-17.562-48.265l-0.111-0.657l-25.446-69.914 c-0.213-0.418-0.418-0.845-0.589-1.28l-17.28-47.462c-7.211-19.831,3.046-41.839,22.878-49.058L386.834,47.123 c4.224-1.536,8.627-2.313,13.09-2.313c16.026,0,30.481,10.121,35.968,25.19l60.988,167.586c3.499,9.6,3.046,19.994-1.28,29.269 c-4.318,9.267-11.989,16.29-21.598,19.789L186.736,391.204C182.512,392.732,178.109,393.517,173.646,393.517z"/> <path style="fill:#6D7584;" d="M331.683,403.211c-20.983,0-40.704-10.726-52.736-28.698l-9.088-13.568l123.204-44.843l1.886,16.077 l0.196,1.331c0.299,1.869,0.538,3.746,0.538,5.7C395.683,374.505,366.977,403.211,331.683,403.211z"/> <polygon style="fill:#BDC4D0;" points="6.487,231.367 91.376,241.129 122.975,327.938 64.223,389.993 "/> <path style="fill:#573A32;" d="M344.483,414.722c36.25-6.135,64-37.538,64-75.503c0-4.992-0.768-9.762-1.775-14.455l71.689-26.095 c26.462-9.634,40.158-38.997,30.524-65.468L447.924,65.624c-7.322-20.105-26.607-33.613-48-33.613 c-5.965,0-11.836,1.041-17.468,3.089L95.182,139.659c-26.462,9.634-40.158,38.997-30.524,65.468l7.612,20.924l-43.742-5.035 c-0.981-0.111-1.954-0.171-2.935-0.171c-7.782,0-15.206,3.55-20.087,9.737c-5.495,6.963-6.997,16.282-3.959,24.619l43.571,119.697 c3.038,8.337,10.172,14.507,18.859,16.307c1.732,0.358,3.473,0.538,5.197,0.538c6.955,0,13.705-2.842,18.586-8.004l30.268-31.974 l7.612,20.924c7.322,20.105,26.607,33.613,48,33.613c5.965,0,11.836-1.041,17.468-3.089l73.933-26.914 c11.093,19.977,30.541,34.645,53.837,38.596v52.301c0,7.074,5.726,12.8,12.8,12.8h180.326v-25.6H344.483V414.722z M69.164,366.151 L25.601,246.445l56.457,6.502l26.18,71.936L69.164,366.151z M182.35,379.172c-2.876,1.05-5.82,1.545-8.713,1.545 c-10.402,0-20.173-6.426-23.945-16.768l-17.118-47.044c-0.094-0.29-0.085-0.589-0.188-0.879l-26.138-71.817 c-0.102-0.29-0.307-0.512-0.418-0.785l-17.126-47.053c-4.813-13.218,2.005-27.844,15.223-32.657L391.212,59.155 c2.876-1.05,5.82-1.545,8.713-1.545c10.411,0,20.181,6.426,23.945,16.768l60.996,167.578c4.813,13.218-2.005,27.844-15.223,32.657 L182.35,379.172z M289.58,367.388l92.655-33.724c0.213,1.852,0.649,3.635,0.649,5.547c0,28.237-22.963,51.2-51.2,51.2 C313.968,390.411,298.762,381.101,289.58,367.388z"/> </g>
</svg>