<?xml version="1.0" encoding="UTF-8"?> <svg xmlns="http://www.w3.org/2000/svg" width="32" height="32" viewBox="0 0 32 32" fill="none"><path d="M1 26.025C1 19.5175 1 13.01 1 6.5033C1.03994 6.396 1.09398 6.29184 1.11826 6.18063C1.50751 4.43255 2.96423 3.23741 4.7499 3.23193C7.40726 3.22253 10.0638 3.22879 12.7212 3.22958C12.7917 3.22958 12.8629 3.24211 12.9648 3.25229C12.9123 3.30006 12.8943 3.32278 12.87 3.33687C11.6145 4.0903 10.3591 4.84529 9.09973 5.59245C9.00574 5.64806 8.87887 5.66842 8.76687 5.66999C8.2296 5.67782 7.69234 5.67312 7.15507 5.67391C6.35387 5.67391 5.55267 5.66451 4.75225 5.67782C4.07558 5.68957 3.55711 6.17749 3.4921 6.83146C3.42945 7.46114 3.83044 8.03443 4.45542 8.18402C4.61363 8.22161 4.78436 8.2177 4.94962 8.2177C11.8558 8.21926 18.7627 8.21927 25.6688 8.21927C25.7957 8.21927 25.9226 8.21692 26.0495 8.22161C27.3112 8.26861 28.3826 9.20843 28.464 10.4271C28.5131 11.1651 28.4281 13.554 28.4281 13.554C28.3467 13.5587 28.2511 13.5689 28.1564 13.5689C27.2675 13.5705 24.8785 13.5595 23.9896 13.5744C23.6106 13.5807 23.2284 13.6128 22.8556 13.6801C19.2169 14.3411 17.1695 17.9277 18.7899 21.2484C19.7415 23.1993 21.3196 23.8465 23.5 24C24.5111 24.0713 27.0308 24.0274 28.0466 24.0392C28.1782 24.0407 28.3097 24.0587 28.4476 24.0689C28.4554 24.1794 28.4844 24.7101 28.4844 24.7868C28.4844 25.5293 28.4907 26.2717 28.4821 27.0142C28.4687 28.1255 27.7051 29.0967 26.6196 29.3536C26.3205 29.4249 26.0009 29.4335 25.6908 29.4335C18.8034 29.4374 11.9169 29.4366 5.0295 29.4366C4.87365 29.4366 4.71701 29.435 4.56115 29.4272C2.89375 29.345 1.49184 28.1663 1.11904 26.5349C1.08067 26.3642 1.03994 26.195 1 26.025Z" fill="#9E7567"></path><path d="M31.0001 18.8401C31.0001 19.7385 30.9985 20.6376 31.0001 21.5359C31.0001 21.8546 30.9116 22.1319 30.6625 22.3441C30.4746 22.5039 30.2568 22.5595 30.0117 22.5587C28.4391 22.5548 24.8664 22.565 23.2938 22.5532C21.5575 22.5407 20.0044 21.2054 19.7138 19.498C19.3857 17.5667 20.5511 15.7293 22.4393 15.2359C22.7745 15.1482 23.1332 15.1192 23.481 15.1161C24.9557 15.1036 28.4304 15.109 29.906 15.1114C30.6571 15.113 30.9985 15.456 30.9993 16.2032C31.0001 17.0819 31.0001 17.9614 31.0001 18.8401ZM22.119 18.7924C22.0916 19.4816 22.6414 20.076 23.3384 20.1097C24.0229 20.1426 24.6166 19.5928 24.6542 18.8903C24.6902 18.2089 24.1506 17.6011 23.4802 17.569C22.7369 17.5338 22.148 18.0632 22.119 18.7924Z" fill="#9E7567"></path><path d="M22.5273 6.91607H10.7732L10.7583 6.86046C10.8351 6.80877 10.9102 6.75317 10.9901 6.70539C13.4916 5.20324 15.9986 3.71127 18.4915 2.19501C19.0499 1.85511 19.6694 1.94596 20.0218 2.57486C20.7894 3.94544 21.5984 5.29252 22.3894 6.64979C22.4364 6.72967 22.4756 6.81425 22.528 6.91529L22.5273 6.91607Z" fill="#9E7567"></path><path d="M24.6721 6.75395C24.0143 5.6199 23.3564 4.48584 22.6758 3.31263C22.7878 3.31263 22.8536 3.3001 22.9115 3.31419C23.9312 3.56795 24.7089 4.5438 24.7293 5.59954C24.7363 5.97938 24.7309 6.35923 24.7309 6.73907C24.7113 6.74377 24.6917 6.74925 24.6721 6.75395Z" fill="#9E7567"></path></svg> 